<svg width="23" height="23" viewBox="0 0 23 23" fill="none" xmlns="http://www.w3.org/2000/svg">
<path d="M11.5003 11.4993H11.5099M15.3337 5.74935V3.83268C15.3337 3.32435 15.1317 2.83684 14.7723 2.47739C14.4128 2.11795 13.9253 1.91602 13.417 1.91602H9.58366C9.07533 1.91602 8.58782 2.11795 8.22837 2.47739C7.86893 2.83684 7.66699 3.32435 7.66699 3.83268V5.74935M21.0837 12.4577C18.2401 14.335 14.9077 15.3358 11.5003 15.3358C8.09292 15.3358 4.76057 14.335 1.91699 12.4577M3.83366 5.74935H19.167C20.2255 5.74935 21.0837 6.60747 21.0837 7.66602V17.2493C21.0837 18.3079 20.2255 19.166 19.167 19.166H3.83366C2.77511 19.166 1.91699 18.3079 1.91699 17.2493V7.66602C1.91699 6.60747 2.77511 5.74935 3.83366 5.74935Z" stroke="#294A5F" stroke-width="2" stroke-linecap="round" stroke-linejoin="round"/>
</svg>
