<svg width="23" height="23" viewBox="0 0 23 23" fill="none" xmlns="http://www.w3.org/2000/svg">
<path d="M15.333 3.83268H17.2497C17.758 3.83268 18.2455 4.03462 18.605 4.39406C18.9644 4.75351 19.1663 5.24102 19.1663 5.74935V19.166C19.1663 19.6743 18.9644 20.1619 18.605 20.5213C18.2455 20.8807 17.758 21.0827 17.2497 21.0827H5.74967C5.24134 21.0827 4.75383 20.8807 4.39439 20.5213C4.03494 20.1619 3.83301 19.6743 3.83301 19.166V5.74935C3.83301 5.24102 4.03494 4.75351 4.39439 4.39406C4.75383 4.03462 5.24134 3.83268 5.74967 3.83268H7.66634M11.4997 10.541H15.333M11.4997 15.3327H15.333M7.66634 10.541H7.67592M7.66634 15.3327H7.67592M8.62467 1.91602H14.3747C14.9039 1.91602 15.333 2.34508 15.333 2.87435V4.79102C15.333 5.32029 14.9039 5.74935 14.3747 5.74935H8.62467C8.0954 5.74935 7.66634 5.32029 7.66634 4.79102V2.87435C7.66634 2.34508 8.0954 1.91602 8.62467 1.91602Z" stroke="#294A5F" stroke-width="2" stroke-linecap="round" stroke-linejoin="round"/>
</svg>
